
        <svg width="400px" height="400px" viewBox="0 0 400 400" version="1.1" xmlns="http://www.w3.org/2000/svg" xmlns:xlink="http://www.w3.org/1999/xlink">
          <defs>
            <linearGradient x1="0%" y1="50%" x2="100%" y2="50%" id="shadeGradientLight">
              <stop stop-color="#e0dce0" offset="0%"></stop>
              <stop stop-color="#c1bcc2" offset="16.67%"></stop>
              <stop stop-color="#a29da3" offset="33.33%"></stop>
              <stop stop-color="#847e85" offset="50%"></stop>
              <stop stop-color="#656066" offset="66.67%"></stop>
              <stop stop-color="#474247" offset="83.33%"></stop>
              <stop stop-color="#282629" offset="100%"></stop>
            </linearGradient>
            <linearGradient x1="0%" y1="50%" x2="100%" y2="50%" id="shadeGradientDark">
              <stop stop-color="#343637" offset="0%"></stop>
              <stop stop-color="#515253" offset="16.67%"></stop>
              <stop stop-color="#6d6e6f" offset="33.33%"></stop>
              <stop stop-color="#898a8a" offset="50%"></stop>
              <stop stop-color="#a6a6a6" offset="66.67%"></stop>
              <stop stop-color="#c2c2c2" offset="83.33%"></stop>
              <stop stop-color="#d0d0d0" offset="100%"></stop>
            </linearGradient>
          </defs>
          <g id="light">
            <rect fill="#fffcff" x="0" y="0" width="400" height="200"></rect>
            <rect fill="#f03e4d" x="28" y="28" width="74" height="37"></rect>
            <rect fill="#f37735" x="118" y="28" width="74" height="37"></rect>
            <rect fill="#eeba21" x="208" y="28" width="74" height="37"></rect>
            <rect fill="#97bd2d" x="298" y="28" width="74" height="37"></rect>
            <rect fill="#1fc598" x="28" y="81" width="74" height="37"></rect>
            <rect fill="#53a6e1" x="118" y="81" width="74" height="37"></rect>
            <rect fill="#bf65f0" x="208" y="81" width="74" height="37"></rect>
            <rect fill="#ee4eb8" x="298" y="81" width="74" height="37"></rect>
            <rect fill="url(#shadeGradientLight)" x="28" y="134" width="344" height="37"></rect>
          </g>
          <g id="dark" transform="translate(0.000000, 200.000000)">
            <rect fill="#181a1b" x="0" y="0" width="400" height="200"></rect>
            <rect fill="#9b5c78" x="28" y="28" width="74" height="37"></rect>
            <rect fill="#ec9e9b" x="118" y="28" width="74" height="37"></rect>
            <rect fill="#74ae93" x="208" y="28" width="74" height="37"></rect>
            <rect fill="#74ae93" x="298" y="28" width="74" height="37"></rect>
            <rect fill="#6d959f" x="28" y="81" width="74" height="37"></rect>
            <rect fill="#878a9b" x="118" y="81" width="74" height="37"></rect>
            <rect fill="#a5b0b8" x="208" y="81" width="74" height="37"></rect>
            <rect fill="#b294bb" x="298" y="81" width="74" height="37"></rect>
            <rect fill="url(#shadeGradientDark)" x="28" y="134" width="344" height="37"></rect>
          </g>
        </svg>
      